# xmcd
#
# Track frame offsets:
#	150
#	19719
#	37938
#	56845
#	73800
#
# Disc length: 1170 seconds
#
# Revision: 1
# Processed by: cddbd v1.5.2PL0 Copyright (c) Steve Scherf et al.
# Submitted via: audiograbber 1.83.01
#
DISCID=3e049005
DTITLE=Trisha Yearwood - 330 Session-Up Close Unplugged
DYEAR=2007
DGENRE=Country
TTITLE0=Walk Away Joe
TTITLE1=They Call It Falling For A Reason
TTITLE2=This Is Me You're Talking To
TTITLE3=Cowboys Are My Weakness
TTITLE4=Heaven Heartache And The Power Of Love
EXTD=
EXTT0=
EXTT1=
EXTT2=
EXTT3=
EXTT4=
PLAYORDER=
